<svg width="54" height="52" viewBox="0 0 54 52" fill="none" xmlns="http://www.w3.org/2000/svg">
<path d="M34.3274 39.1646C34.3509 40.738 33.7606 41.919 32.5799 42.7141C31.7213 43.2844 31.2014 43.4589 30.1784 43.5025C29.4003 43.5327 29.2057 43.5125 28.5752 43.3146C28.1794 43.1905 27.6226 42.9422 27.3308 42.7476C27.0323 42.5597 26.7741 42.4356 26.7506 42.4859C26.66 42.6436 25.5733 43.2005 25.0534 43.3582C24.2887 43.5964 23.0477 43.5729 22.2897 43.3146C21.5048 43.0361 20.5623 42.3853 20.1598 41.8451C19.0195 40.3556 19.0396 38.5741 20.2001 35.8398L20.4785 35.1554L20.2605 34.8367C20.18 34.7126 20.0559 34.5448 19.9116 34.3704C19.972 34.3301 20.0257 34.2764 20.076 34.2261C20.0961 34.206 20.1162 34.1926 20.1364 34.1724C20.559 34.7327 20.8273 35.1688 20.7871 35.2829C20.7669 35.3768 20.5825 35.8633 20.4047 36.3498C19.4119 38.9297 19.4622 40.5334 20.6026 41.7646C21.9576 43.224 23.9466 43.5763 25.7678 42.647C26.5862 42.231 26.7103 42.0766 26.7103 41.4124C26.7103 40.8756 26.6969 40.8454 26.4621 40.7917C25.6236 40.5837 23.5609 39.1344 23.7286 38.876C23.7688 38.8156 24.017 38.9297 24.4094 39.2082C24.7516 39.4464 25.0836 39.6443 25.1339 39.6443C25.2077 39.6443 25.2379 39.4464 25.2379 39.084C25.2379 38.5875 25.2178 38.4835 25.0232 38.3091C24.9092 38.1816 24.7113 38.091 24.5973 38.091C24.339 38.091 23.9466 38.2654 23.7789 38.4634C23.5843 38.7116 23.3563 38.6177 23.1282 38.2352C22.8364 37.7186 22.8263 37.0442 23.1181 36.6081C23.3663 36.2458 24.1109 35.8331 24.8991 35.6251C25.6001 35.4205 27.8775 35.397 28.602 35.5748C29.3064 35.7492 30.1046 36.1552 30.3931 36.484C30.8492 37.014 30.8392 37.8628 30.3629 38.4198L30.1348 38.6915L29.7525 38.3896C29.246 38.0071 28.8603 37.987 28.5618 38.3091C28.3739 38.5137 28.3438 38.6278 28.3438 39.084C28.3438 39.3826 28.3739 39.6544 28.4175 39.6745C28.4578 39.7047 28.7496 39.5302 29.0884 39.292C29.4103 39.0639 29.7323 38.876 29.7826 38.866C30.3428 38.8458 28.3136 40.4193 27.4113 40.6877L27.0491 40.8018V42.127L27.4851 42.3987C28.9039 43.318 30.601 43.4119 31.9259 42.657C33.291 41.8787 33.945 40.7816 33.945 39.2719C33.945 38.4332 33.7572 37.6045 33.2507 36.2357L32.9086 35.2829L33.4486 34.4677C33.4956 34.4006 33.5459 34.3301 33.5996 34.2529H33.6029L33.6264 34.2764C33.6868 34.3402 33.7505 34.4006 33.8209 34.4542C33.5425 34.8468 33.3447 35.1554 33.3447 35.2796C33.3447 35.3534 33.5023 35.8096 33.6868 36.2961C34.1932 37.6414 34.3173 38.2017 34.3274 39.1646Z" fill="#F5F4F2"/>
<path d="M50.0417 5.68249C49.6895 2.99184 49.0891 0.941977 48.4485 0.257572C48.1164 -0.0946953 47.8984 -0.0946953 46.8855 0.321316C42.6426 2.03904 36.9709 5.9945 34.5895 8.90322C34.2675 9.29575 33.9791 9.63795 33.9589 9.66814C33.9288 9.7084 33.4324 9.6044 32.8622 9.44001C30.7826 8.81935 29.0318 8.50734 27.0026 8.4134C24.9734 8.50734 23.2159 8.81599 21.133 9.44001C20.5628 9.6044 20.0765 9.7084 20.0362 9.66814C20.0161 9.63795 19.7243 9.29575 19.4157 8.90322C17.031 5.99114 11.3593 2.03568 7.10632 0.317961C6.09339 -0.0946953 5.87538 -0.0946953 5.54333 0.254217C4.91276 0.938622 4.30232 2.98848 3.95015 5.67913C3.77573 7.0882 3.69188 10.8155 3.82605 12.2313C4.08431 15.1602 4.57065 17.3778 5.5232 19.9342C5.53326 19.9342 5.57351 20.0583 5.61711 20.2462C5.71103 20.6186 5.83513 21.2192 5.90556 21.4473L5.65736 20.2965C5.65736 20.2965 5.68755 20.2865 5.69761 20.2865C8.12931 19.5115 12.4259 18.7332 18.4095 19.9644C19.8182 20.2529 21.1934 21.0111 22.2499 22.0042C22.26 21.9941 22.27 21.9941 22.2801 21.9841C23.6351 21.095 25.0942 20.5851 26.5129 20.4844C26.5431 20.4744 26.5766 20.4744 26.6068 20.4744C26.7712 20.4542 26.9489 20.4542 27.1133 20.4542C28.8507 20.4542 30.4875 21.0548 31.7822 22.2357L31.7922 22.2458L31.7822 22.2659C31.8224 22.2256 31.866 22.1921 31.9063 22.1619C32.9326 21.2292 34.244 20.5247 35.5924 20.2462C41.6263 19.0049 45.9531 19.8101 48.3747 20.6086L48.3646 20.5046L48.3546 20.4408L48.3445 20.2965C48.3546 20.2462 48.3747 20.1925 48.3948 20.1422C49.3876 17.5019 49.8941 15.244 50.1758 12.2313C50.2999 10.8122 50.2261 7.08485 50.0417 5.67913V5.68249ZM6.53613 5.02828C6.68035 4.33381 6.94868 3.74334 7.18682 3.65276C7.99515 3.31056 10.1384 4.81356 12.9223 7.64848C14.5054 9.2622 17.3329 11.1577 16.7727 11.9965L15.9443 12.6909C15.4781 13.1875 15.2936 13.3854 14.4953 14.0665C13.6971 14.7408 12.3018 16.0123 11.3995 16.8812C10.5006 17.7602 9.72249 18.4748 9.68224 18.4748C9.50783 18.4748 9.03155 18.1024 8.79341 17.7703C7.81067 16.425 7.00234 13.7209 6.58979 10.4196C6.40197 8.94012 6.37178 5.87372 6.53948 5.02492L6.53613 5.02828ZM41.0763 7.64848C43.8601 4.81021 45.9933 3.31056 46.8016 3.65276C47.0398 3.7467 47.3081 4.33716 47.4523 5.02828C47.6167 5.87707 47.5865 8.94348 47.402 10.423C46.9895 13.7242 46.1912 16.4283 45.2085 17.7736C44.9603 18.1058 44.494 18.4782 44.3096 18.4782C44.2794 18.4782 43.5012 17.7636 42.5923 16.8846C41.6934 16.0157 40.2948 14.7408 39.4965 14.0698C38.7083 13.3854 38.5138 13.1908 38.0475 12.6943L37.2191 11.9998C36.669 11.1611 39.4864 9.26555 41.0796 7.65183L41.0763 7.64848Z" fill="#5E1211"/>
<path d="M47.402 10.4229C46.9894 13.7241 46.1911 16.4282 45.2084 17.7735C44.9602 18.1057 44.494 18.4781 44.3095 18.4781C44.2793 18.4781 43.5012 17.7635 42.5922 16.8845C41.6933 16.0156 40.2947 14.7407 39.4964 14.0697C38.7082 13.3853 38.5137 13.1907 38.0475 12.6942L37.219 11.9997C36.669 11.161 39.4864 9.26544 41.0795 7.65172C43.8634 4.81346 45.9966 3.3138 46.8049 3.65601C47.0431 3.74994 47.3114 4.34041 47.4556 5.03153C47.62 5.88032 47.5898 8.94672 47.4053 10.4262L47.402 10.4229Z" fill="#F5F4F2" stroke="white" stroke-width="0.2" stroke-miterlimit="10"/>
<path d="M16.7726 11.9958L15.9441 12.6903C15.4779 13.1868 15.2934 13.3848 14.4952 14.0658C13.6969 14.7402 12.3016 16.0117 11.3994 16.8806C10.5005 17.7596 9.72235 18.4742 9.6821 18.4742C9.50769 18.4742 9.03141 18.1018 8.79327 17.7697C7.81053 16.4243 7.0022 13.7203 6.58965 10.419C6.40183 8.9395 6.37164 5.8731 6.53934 5.0243C6.68357 4.32983 6.95189 3.73937 7.19003 3.64878C7.99836 3.30658 10.1416 4.80959 12.9255 7.6445C14.5086 9.25822 17.3361 11.1538 16.7759 11.9925L16.7726 11.9958Z" fill="#F5F4F2" stroke="white" stroke-width="0.2" stroke-miterlimit="10"/>
<path d="M33.9453 39.2726C33.9453 40.7823 33.2912 41.8794 31.9261 42.6577C30.6013 43.4126 28.9041 43.3186 27.4854 42.3994L27.0493 42.1277V40.8025L27.4116 40.6884C28.3138 40.42 30.343 38.8465 29.7829 38.8667C29.7326 38.8767 29.4106 39.0646 29.0886 39.2927C28.7498 39.5309 28.458 39.7054 28.4178 39.6752C28.3742 39.6551 28.344 39.3833 28.344 39.0847C28.344 38.6285 28.3742 38.5144 28.562 38.3097C28.8605 37.9877 29.2462 38.0078 29.7527 38.3903L30.1351 38.6922L30.3631 38.4205C30.8394 37.8635 30.8495 37.0147 30.3933 36.4847C30.1049 36.1559 29.3066 35.7499 28.6023 35.5755C27.8778 35.3977 25.6004 35.4212 24.8994 35.6258C24.1112 35.8338 23.3666 36.2465 23.1184 36.6088C22.8266 37.0449 22.8366 37.7193 23.1284 38.2359C23.3565 38.6184 23.5846 38.7123 23.7791 38.4641C23.9468 38.2661 24.3393 38.0917 24.5975 38.0917C24.7116 38.0917 24.9094 38.1823 25.0235 38.3097C25.218 38.4842 25.2381 38.5882 25.2381 39.0847C25.2381 39.4471 25.208 39.645 25.1342 39.645C25.0839 39.645 24.7518 39.4471 24.4097 39.2089C24.0173 38.9304 23.7691 38.8163 23.7288 38.8767C23.5611 39.1351 25.6239 40.5844 26.4624 40.7924C26.6972 40.8461 26.7106 40.8763 26.7106 41.4131C26.7106 42.0773 26.5865 42.2317 25.7681 42.6477C23.9468 43.577 21.9579 43.2247 20.6028 41.7653C19.4624 40.5341 19.4121 38.9304 20.4049 36.3505C20.5827 35.864 20.7672 35.3775 20.7873 35.2836C20.8276 35.1695 20.5592 34.7334 20.1366 34.1731C20.0997 34.1228 20.0628 34.0725 20.0226 34.0221C20.3446 33.7638 20.6431 33.4719 20.9349 33.1633C22.8467 31.0832 23.7758 28.2919 23.4873 25.4973C23.4873 25.4906 23.484 25.4839 23.484 25.4772C23.484 25.4637 23.4806 25.4537 23.4806 25.4402C23.8093 25.4604 24.1112 25.4704 24.1112 25.4503C24.0273 24.5176 23.6047 23.6051 22.9607 22.7899C22.9775 22.7798 22.9943 22.7664 23.011 22.7597C24.3393 21.8874 25.7446 21.4579 27.0829 21.4579C27.2003 21.4579 27.3177 21.4613 27.4317 21.468C28.7767 21.5452 30.0378 22.0618 31.0709 23.0046C31.0742 23.0079 31.0809 23.0113 31.0843 23.0146C30.6684 23.5246 30.343 24.0748 30.1351 24.6418C30.1183 24.6921 30.1015 24.7424 30.0848 24.7927C29.9841 25.1014 29.9137 25.4134 29.8869 25.7254C29.8869 25.7422 30.1049 25.7388 30.3766 25.7221C30.4168 25.7221 30.4571 25.7187 30.4973 25.7153V25.7221C30.1854 28.5536 31.1279 31.3885 33.0766 33.5122C33.2711 33.7269 33.4791 33.9349 33.6971 34.1228C33.6635 34.1664 33.6334 34.21 33.5998 34.2503C33.5462 34.3274 33.4958 34.3979 33.4489 34.465L32.9089 35.2802L33.251 36.233C33.7575 37.6019 33.9453 38.4305 33.9453 39.2693V39.2726Z" fill="#5E1211" stroke="white" stroke-width="0.2" stroke-miterlimit="10"/>
<path d="M53.996 36.0484C54.0463 36.1624 53.6136 36.565 53.1977 37.0112L51.997 38.3263C51.7588 38.5645 50.7761 39.2993 50.2059 39.5274C48.6865 40.1481 43.6051 42.7146 38.9966 45.2006C32.8889 48.4918 31.1917 49.4345 30.1587 50.0988C29.0284 50.8235 28.2033 51.1422 27.0025 51.3401C25.8018 51.1422 24.9632 50.8235 23.8329 50.0988C22.7999 49.4345 21.1128 48.4918 14.995 45.2006C10.3865 42.7146 5.31515 40.1481 3.78234 39.5274C3.2155 39.2993 2.24283 38.5645 1.99463 38.3263L0.793872 37.0112C0.377968 36.565 -0.0547057 36.1624 0.00566741 36.0484C0.159954 35.7363 0.575858 35.5518 1.10245 35.2801C2.7191 34.4749 5.26484 33.6664 7.06597 33.398C7.58249 33.3141 8.02858 33.2436 8.04871 33.2201C8.1225 33.1497 7.95479 32.9316 7.80051 32.9316C7.40808 32.9316 5.58347 33.294 4.56048 33.5724C3.45364 33.8844 1.09238 34.2568 0.968283 34.1428C0.928034 34.1126 1.11251 33.6965 1.38419 33.2302C1.85711 32.3714 3.80582 28.4696 4.55042 26.8626C4.67452 26.5841 4.79862 26.3459 4.89253 26.1916C4.91266 26.1513 4.93278 26.1178 4.95291 26.0976C4.96297 26.0674 4.97303 26.0372 4.98309 26.0037C4.98309 25.9936 4.99651 25.9735 5.00657 25.9634C5.01664 25.9836 5.03676 26.0138 5.05688 26.0372L5.1508 26.2654C5.16086 26.2855 5.17092 26.3056 5.18098 26.3157C5.32521 26.6143 5.63714 26.7921 5.95913 26.782V26.8525C6.09329 31.8144 9.89009 35.9343 14.5086 36.0584C14.569 36.0584 14.6428 36.0685 14.7032 36.0685C16.4942 36.0685 18.2752 35.4176 19.7879 34.2166C19.8282 34.2669 19.8684 34.3172 19.912 34.3709C20.0562 34.5453 20.1803 34.7131 20.2608 34.8372L20.4789 35.1559L20.2005 35.8403C19.04 38.5746 19.0198 40.3561 20.1602 41.8457C20.5627 42.3858 21.5052 43.0367 22.2901 43.3151C23.0481 43.5735 24.2891 43.5969 25.0538 43.3587C25.5737 43.2011 26.6604 42.6441 26.751 42.4865C26.7744 42.4361 27.0327 42.5603 27.3312 42.7481C27.623 42.9427 28.1798 43.191 28.5756 43.3151C29.2061 43.5131 29.4007 43.5332 30.1788 43.503C31.2018 43.4594 31.7217 43.2849 32.5803 42.7146C33.7609 41.9195 34.3513 40.7385 34.3278 39.1651C34.3177 38.2022 34.1936 37.6419 33.6872 36.2966C33.5027 35.8102 33.345 35.3539 33.345 35.2801C33.345 35.1559 33.5429 34.8473 33.8213 34.4548C33.8515 34.4111 33.8951 34.3608 33.9253 34.3172C35.5084 35.686 37.4135 36.4308 39.3186 36.4308H39.5165C44.0579 36.3067 47.962 32.0191 48.0425 27.0605H48.1063C48.4283 27.0404 48.7167 26.8525 48.8509 26.5438L49.0286 26.1077L49.0387 26.0976C49.089 26.1714 49.1527 26.2754 49.2131 26.3996C49.2869 26.5338 49.3674 26.6881 49.4512 26.8626C50.1858 28.4696 52.1446 32.3714 52.6074 33.2302C52.8791 33.6965 53.0736 34.1126 53.0233 34.1428C52.9093 34.2568 50.548 33.8844 49.4311 33.5724C48.4182 33.294 46.607 32.9316 46.2012 32.9316H46.1911C46.0469 32.9316 45.8691 33.1497 45.953 33.2201C45.953 33.2201 45.963 33.2302 45.9731 33.2302C46.0771 33.2638 46.4795 33.3242 46.9357 33.398C48.7268 33.6664 51.2725 34.4749 52.8892 35.2801C53.4258 35.5518 53.8417 35.7363 53.996 36.0484Z" fill="#5E1211"/>
<path d="M32.0302 22.2656L32.0201 22.2857C31.9899 22.3159 31.9463 22.3495 31.9161 22.3897L31.3157 23.0406C29.1289 21.031 25.9191 20.9169 23.058 22.8091C23.058 22.799 23.048 22.789 23.0379 22.7789L22.3336 22.0207C25.6038 19.8433 29.4844 19.9171 32.0302 22.2622V22.2656Z" fill="#FDCF81" stroke="#FDCF81" stroke-width="0.38" stroke-miterlimit="10"/>
<path d="M20.9987 33.3539C20.727 33.6457 20.4385 33.9242 20.1367 34.1725C20.1165 34.1926 20.0964 34.206 20.0763 34.2261C20.026 34.2765 19.9723 34.3301 19.9119 34.3704C19.8784 34.3905 19.8583 34.4107 19.8281 34.4308C18.2953 35.6419 16.4841 36.3163 14.6628 36.3163C14.5991 36.3163 14.5287 36.2961 14.4649 36.2961C9.75584 36.172 5.87519 31.9481 5.78128 26.8755V26.8319H6.30787C6.3716 31.5523 10.108 35.6654 14.475 35.7795C16.7323 35.8399 18.9359 34.8267 20.6029 32.9915C22.4677 30.9752 23.3666 28.251 23.0581 25.5168L23.3264 25.4866L23.4807 25.4765H23.484L23.5846 25.4664V25.5067C23.9066 28.3651 22.9541 31.2335 20.9987 33.3539Z" fill="#A6634B"/>
<path d="M24.2254 25.5203C24.2254 25.5404 23.9269 25.5304 23.5847 25.5102C23.5546 25.5102 23.511 25.5002 23.4808 25.5002C23.4305 25.5002 23.3768 25.5002 23.3265 25.4901C23.038 25.4801 22.7999 25.4599 22.7999 25.4599C22.7999 25.4599 21.1866 22.6653 19.7242 22.1151C18.5033 21.6487 15.5518 20.9241 14.247 20.8939C11.9998 20.8435 7.47854 21.1925 6.75406 23.3899C6.4958 24.1549 6.67021 26.6207 6.67021 26.6207L6.03965 26.8388H6.01953C5.9994 26.8489 5.97928 26.8489 5.9558 26.8589C5.89207 26.869 5.84176 26.8791 5.78139 26.8791C5.44934 26.8891 5.14076 26.7147 4.99318 26.4027C4.98312 26.3926 4.97306 26.3725 4.95293 26.3523L4.88921 26.198L4.85902 26.1242L4.78523 25.9363L4.27877 24.695L3.30609 23.7321C3.21218 23.6483 3.16187 23.5241 3.16187 23.4L3.17193 21.2763C3.17193 21.2763 3.84609 20.8637 5.14747 20.4175C5.25145 20.3772 5.35542 20.3336 5.46946 20.2933C5.47952 20.2933 5.49965 20.2833 5.50971 20.2833C5.53989 20.2732 5.57344 20.2631 5.61368 20.2531C8.09904 19.4781 12.4358 18.7299 18.4296 19.9545C19.8383 20.2531 21.2134 21.0012 22.28 21.9943C22.3001 22.0043 22.3102 22.0144 22.3303 22.0345L23.0045 22.7592L23.0347 22.7894C23.0347 22.7894 23.0548 22.8095 23.0548 22.8196C23.7055 23.6483 24.1415 24.5809 24.2254 25.5203Z" fill="#A6634B" stroke="#A6634B" stroke-width="0.5" stroke-miterlimit="10"/>
<path d="M48.2002 27.0604V27.1007C48.17 29.2646 47.412 31.3044 46.2012 32.9315C46.1308 33.0355 46.057 33.1395 45.9731 33.2301C44.3699 35.2297 42.0522 36.5548 39.5367 36.6287H39.3388C37.4035 36.6287 35.4682 35.8604 33.8516 34.4748C33.8415 34.4647 33.8314 34.4647 33.8214 34.4547C33.7509 34.401 33.6872 34.3406 33.6268 34.2769C33.6268 34.2769 33.619 34.2701 33.6034 34.2567H33.6C33.3853 34.0756 33.1807 33.8642 32.9929 33.6562C31.0174 31.5023 30.0548 28.6137 30.3768 25.7352V25.6949L30.5009 25.7151L30.6015 25.7251H30.635L30.8933 25.7453C30.5813 28.4896 31.4937 31.244 33.3786 33.3039C35.0758 35.1357 37.2794 36.1824 39.5166 36.0986C43.8735 35.9845 47.6099 31.8345 47.6703 27.0604H48.2002Z" fill="#A6634B"/>
<path d="M50.9406 23.6148C50.9406 23.7389 50.8903 23.863 50.7964 23.9469L49.8136 24.9098L49.5252 25.6344L49.3374 26.1008V26.1108L49.3273 26.1209L49.2133 26.3994L49.1395 26.5637C48.9953 26.9059 48.6733 27.1005 48.3211 27.0905C48.2808 27.0905 48.2372 27.0905 48.197 27.0804C48.1668 27.0804 48.1333 27.0703 48.1031 27.0603H48.093C48.093 27.0603 48.0729 27.0502 48.0628 27.0502L47.4323 26.8221C47.4323 26.8221 47.6067 24.3696 47.3484 23.6013C46.6239 21.4173 42.0993 21.055 39.8554 21.1053C38.5507 21.1355 35.6025 21.8601 34.3783 22.3265C32.9192 22.8633 31.3026 25.6713 31.3026 25.6713C31.3026 25.6713 31.0544 25.6915 30.7525 25.7116C30.7123 25.7116 30.6687 25.7116 30.6284 25.7217H30.4942C30.454 25.7217 30.4104 25.7217 30.3702 25.7317C30.1018 25.7418 29.8737 25.7518 29.8737 25.7317C29.8939 25.4835 29.9375 25.2453 30.0079 25.0071C30.1957 24.3025 30.5781 23.6181 31.0745 22.9975L31.0946 22.9773L31.1584 22.9035L31.695 22.3231C31.7151 22.2829 31.7453 22.2493 31.7789 22.2292L31.799 22.209C31.8292 22.1889 31.8493 22.1587 31.8828 22.1352C32.9293 21.1724 34.2843 20.4477 35.6696 20.1592C41.5492 18.9481 45.8357 19.6627 48.3479 20.4376C48.4519 20.4678 48.5559 20.5014 48.6598 20.5316C48.7102 20.5416 48.7538 20.5517 48.8041 20.5718C48.9282 20.602 49.0523 20.6557 49.1663 20.696C50.3268 21.122 50.9272 21.4844 50.9272 21.4844L50.9373 23.6081L50.9406 23.6148Z" fill="#A6634B" stroke="#A6634B" stroke-width="0.5" stroke-miterlimit="10"/>
</svg>
