<svg xmlns="http://www.w3.org/2000/svg" version="1.1" xmlns:xlink="http://www.w3.org/1999/xlink" width="108" height="103"><svg xmlns="http://www.w3.org/2000/svg" version="1.1" xmlns:xlink="http://www.w3.org/1999/xlink" width="108" height="103"><svg width="108" height="103" viewBox="0 0 108 103" fill="none" xmlns="http://www.w3.org/2000/svg">
<path d="M83.6556 78.3299C83.7025 81.4769 82.5219 83.8388 80.1606 85.429C78.4433 86.5697 77.4036 86.9186 75.3576 87.0058C73.8013 87.0662 73.4123 87.026 72.1511 86.6301C71.3596 86.3818 70.246 85.8853 69.6624 85.4961C69.0654 85.1203 68.5489 84.8721 68.5019 84.9727C68.3208 85.2881 66.1474 86.4019 65.1076 86.7173C63.5781 87.1937 61.0961 87.1467 59.5801 86.6301C58.0104 86.0732 56.1254 84.7714 55.3204 83.6911C53.0397 80.7119 53.0799 77.149 55.4009 71.6804L55.9577 70.3116L55.5217 69.6741C55.3607 69.4259 55.1125 69.0904 54.824 68.7415C54.9448 68.6609 55.0521 68.5536 55.1527 68.4529C55.193 68.4127 55.2332 68.3858 55.2735 68.3456C56.1187 69.4661 56.6554 70.3384 56.5749 70.5666C56.5346 70.7544 56.1657 71.7274 55.8101 72.7003C53.8245 77.8602 53.9252 81.0676 56.2059 83.5301C58.916 86.4489 62.8939 87.1534 66.5364 85.2948C68.1732 84.4628 68.4214 84.1541 68.4214 82.8256C68.4214 81.752 68.3946 81.6916 67.925 81.5842C66.248 81.1682 62.1225 78.2695 62.4579 77.7529C62.5384 77.6321 63.0348 77.8602 63.8196 78.4172C64.5039 78.8936 65.168 79.2894 65.2686 79.2894C65.4162 79.2894 65.4765 78.8936 65.4765 78.1689C65.4765 77.1758 65.4363 76.9678 65.0472 76.6189C64.8192 76.3639 64.4234 76.1828 64.1953 76.1828C63.6788 76.1828 62.8939 76.5317 62.5585 76.9276C62.1694 77.4241 61.7133 77.2362 61.2571 76.4713C60.6735 75.438 60.6534 74.0893 61.237 73.217C61.7334 72.4923 63.2226 71.667 64.799 71.251C66.201 70.8417 70.7558 70.7947 72.2048 71.1503C73.6135 71.4992 75.21 72.3111 75.7869 72.9687C76.6992 74.0289 76.6791 75.7265 75.7266 76.8403L75.2704 77.3838L74.5057 76.7799C73.4928 76.015 72.7213 75.9747 72.1243 76.6189C71.7486 77.0282 71.6883 77.2563 71.6883 78.1689C71.6883 78.7661 71.7486 79.3096 71.8358 79.3498C71.9163 79.4102 72.5 79.0613 73.1775 78.5849C73.8215 78.1286 74.4654 77.7529 74.5661 77.7327C75.6863 77.6925 71.6279 80.8394 69.8234 81.3762L69.0989 81.6044V84.2548L69.971 84.7983C72.8085 86.6368 76.2028 86.8247 78.8525 85.3149C81.5828 83.7582 82.8908 81.5641 82.8908 78.5446C82.8908 76.8672 82.5152 75.2098 81.5023 72.4722L80.818 70.5666L81.898 68.9361C81.9919 68.8019 82.0926 68.6609 82.1999 68.5066H82.2066L82.2536 68.5536C82.3743 68.6811 82.5018 68.8019 82.6426 68.9092C82.0859 69.6943 81.6901 70.3116 81.6901 70.5599C81.6901 70.7075 82.0054 71.62 82.3743 72.593C83.3872 75.2836 83.6354 76.4042 83.6556 78.3299Z" fill="#F5F4F2"></path>
<path d="M100.083 11.3651C99.3789 5.98372 98.1781 1.88397 96.8968 0.515148C96.2327 -0.189392 95.7967 -0.189392 93.7709 0.642636C85.2851 4.07811 73.9416 11.9891 69.1789 17.8066C68.5349 18.5916 67.958 19.276 67.9178 19.3364C67.8574 19.417 66.8646 19.2089 65.7242 18.8802C61.5652 17.6388 58.0635 17.0148 54.0051 16.8269C49.9467 17.0148 46.4316 17.6321 42.2659 18.8802C41.1255 19.2089 40.1528 19.417 40.0723 19.3364C40.0321 19.276 39.4485 18.5916 38.8313 17.8066C34.0619 11.9824 22.7184 4.0714 14.2125 0.635926C12.1867 -0.189392 11.7506 -0.189392 11.0865 0.508438C9.8254 1.87726 8.60452 5.97701 7.90017 11.3584C7.55135 14.1765 7.38364 21.6312 7.65197 24.4628C8.1685 30.3205 9.14117 34.7558 11.0463 39.8687C11.0664 39.8687 11.1469 40.117 11.2341 40.4928C11.4219 41.2376 11.6701 42.4386 11.811 42.8949L11.3146 40.5934C11.3146 40.5934 11.375 40.5733 11.3951 40.5733C16.2585 39.0233 24.8516 37.4666 36.8189 39.9291C39.6363 40.5062 42.3866 42.0226 44.4997 44.0088C44.5198 43.9886 44.5399 43.9886 44.5601 43.9685C47.2701 42.1904 50.1882 41.1705 53.0257 40.9692C53.0861 40.949 53.1532 40.949 53.2135 40.949C53.5422 40.9088 53.8978 40.9088 54.2265 40.9088C57.7013 40.9088 60.9748 42.1099 63.5642 44.4717L63.5843 44.4919L63.5642 44.5321C63.6447 44.4516 63.7319 44.3845 63.8124 44.3241C65.8651 42.4588 68.4879 41.0497 71.1846 40.4928C83.2525 38.0101 91.906 39.6205 96.7493 41.2174L96.7291 41.0094L96.709 40.8819L96.6889 40.5934C96.709 40.4928 96.7493 40.3854 96.7895 40.2848C98.7751 35.0041 99.7881 30.4883 100.352 24.4628C100.6 21.6245 100.452 14.1698 100.083 11.3584V11.3651ZM13.0721 10.0566C13.3606 8.66768 13.8972 7.48674 14.3735 7.30557C15.9902 6.62116 20.2767 9.6272 25.8444 15.2971C29.0106 18.5245 34.6656 22.3156 33.5453 23.9931L31.8884 25.3821C30.956 26.3751 30.587 26.771 28.9905 28.1331C27.394 29.4818 24.6034 32.0249 22.7989 33.7627C21.0011 35.5207 19.4449 36.9499 19.3644 36.9499C19.0155 36.9499 18.063 36.2051 17.5867 35.5409C15.6212 32.8502 14.0046 27.442 13.1795 20.8395C12.8038 17.8804 12.7434 11.7475 13.0788 10.0499L13.0721 10.0566ZM82.1524 15.2971C87.7201 9.62049 91.9865 6.62116 93.6032 7.30557C94.0794 7.49345 94.6161 8.67439 94.9045 10.0566C95.2332 11.7542 95.1729 17.8871 94.8039 20.8462C93.9788 27.4487 92.3823 32.8569 90.4168 35.5476C89.9204 36.2118 88.988 36.9566 88.619 36.9566C88.5587 36.9566 87.0024 35.5274 85.1845 33.7694C83.3867 32.0316 80.5894 29.4818 78.9929 28.1398C77.4165 26.771 77.0274 26.3818 76.095 25.3888L74.4381 23.9998C73.3379 22.3223 78.9727 18.5312 82.1591 15.3038L82.1524 15.2971Z" fill="#5E1211"></path>
<path d="M94.8039 20.8459C93.9788 27.4484 92.3823 32.8566 90.4168 35.5473C89.9204 36.2116 88.988 36.9564 88.619 36.9564C88.5586 36.9564 87.0024 35.5272 85.1845 33.7692C83.3867 32.0313 80.5894 29.4815 78.9929 28.1396C77.4164 26.7707 77.0274 26.3816 76.0949 25.3885L74.438 23.9995C73.3379 22.3221 78.9727 18.531 82.1591 15.3035C87.7268 9.62693 91.9932 6.6276 93.6099 7.31201C94.0861 7.49989 94.6228 8.68083 94.9112 10.0631C95.2399 11.7607 95.1796 17.8935 94.8106 20.8526L94.8039 20.8459Z" fill="#F5F4F2" stroke="white" stroke-width="0.2" stroke-miterlimit="10"></path>
<path d="M33.5456 23.9934L31.8887 25.3824C30.9563 26.3754 30.5873 26.7713 28.9908 28.1334C27.3942 29.4821 24.6037 32.0252 22.7992 33.763C21.0014 35.521 19.4451 36.9502 19.3646 36.9502C19.0158 36.9502 18.0632 36.2054 17.587 35.5411C15.6215 32.8505 14.0048 27.4423 13.1797 20.8397C12.8041 17.8807 12.7437 11.7478 13.0791 10.0502C13.3676 8.66127 13.9042 7.48032 14.3805 7.29916C15.9971 6.61474 20.2836 9.62078 25.8514 15.2907C29.0176 18.5181 34.6726 22.3092 33.5523 23.9867L33.5456 23.9934Z" fill="#F5F4F2" stroke="white" stroke-width="0.2" stroke-miterlimit="10"></path>
<path d="M67.8905 78.5446C67.8905 81.5641 66.5824 83.7582 63.8522 85.3149C61.2025 86.8247 57.8081 86.6368 54.9706 84.7983L54.0986 84.2548V81.6044L54.823 81.3762C56.6275 80.8394 60.6859 77.6925 59.5657 77.7327C59.4651 77.7529 58.8211 78.1286 58.1771 78.5849C57.4996 79.0613 56.916 79.4102 56.8355 79.3498C56.7483 79.3096 56.6879 78.7661 56.6879 78.1689C56.6879 77.2563 56.7483 77.0282 57.1239 76.6189C57.7209 75.9747 58.4924 76.015 59.5053 76.7799L60.27 77.3838L60.7262 76.8403C61.6787 75.7265 61.6989 74.0289 60.7866 72.9687C60.2097 72.3111 58.6131 71.4992 57.2044 71.1503C55.7555 70.7947 51.2006 70.8417 49.7986 71.251C48.2222 71.667 46.733 72.4923 46.2366 73.217C45.653 74.0893 45.6731 75.438 46.2568 76.4713C46.7129 77.2362 47.1691 77.4241 47.5581 76.9276C47.8935 76.5317 48.6784 76.1828 49.1949 76.1828C49.423 76.1828 49.8188 76.3639 50.0468 76.6189C50.4359 76.9678 50.4762 77.1758 50.4762 78.1689C50.4762 78.8936 50.4158 79.2894 50.2682 79.2894C50.1676 79.2894 49.5035 78.8936 48.8193 78.4172C48.0344 77.8602 47.538 77.6321 47.4575 77.7529C47.1221 78.2695 51.2476 81.1682 52.9246 81.5842C53.3942 81.6916 53.421 81.752 53.421 82.8256C53.421 84.1541 53.1728 84.4628 51.536 85.2948C47.8935 87.1535 43.9156 86.4489 41.2055 83.5301C38.9248 81.0676 38.8242 77.8602 40.8098 72.7003C41.1653 71.7274 41.5342 70.7544 41.5745 70.5666C41.655 70.3384 41.1183 69.4661 40.2731 68.3456C40.1993 68.2449 40.1255 68.1443 40.045 68.0436C40.689 67.527 41.286 66.9432 41.8696 66.3259C45.6933 62.1658 47.5514 56.5831 46.9745 50.9938C46.9745 50.9803 46.9678 50.9669 46.9678 50.9535C46.9678 50.9267 46.9611 50.9065 46.9611 50.8797C47.6185 50.92 48.2222 50.9401 48.2222 50.8998C48.0545 49.0345 47.2093 47.2094 45.9213 45.5789C45.9549 45.5587 45.9884 45.5319 46.022 45.5185C48.6784 43.7739 51.4891 42.915 54.1656 42.915C54.4004 42.915 54.6352 42.9218 54.8633 42.9352C57.5532 43.0895 60.0755 44.1228 62.1416 46.0083C62.1483 46.015 62.1617 46.0217 62.1684 46.0284C61.3366 47.0483 60.6859 48.1488 60.27 49.2827C60.2365 49.3834 60.2029 49.484 60.1694 49.5847C59.9682 50.202 59.8273 50.826 59.7736 51.45C59.7736 51.4836 60.2097 51.4769 60.753 51.4433C60.8335 51.4433 60.914 51.4366 60.9945 51.4299V51.4433C60.3706 57.1065 62.2556 62.7764 66.1531 67.0237C66.5421 67.4532 66.958 67.8692 67.3941 68.2449C67.327 68.3322 67.2666 68.4194 67.1995 68.4999C67.0922 68.6542 66.9916 68.7951 66.8977 68.9293L65.8176 70.5599L66.5019 72.4655C67.5148 75.2031 67.8905 76.8605 67.8905 78.5379V78.5446Z" fill="#5E1211" stroke="white" stroke-width="0.2" stroke-miterlimit="10"></path>
<path d="M107.992 72.0967C108.093 72.3249 107.227 73.1301 106.396 74.0225L103.994 76.6528C103.518 77.1292 101.552 78.5986 100.412 79.0549C97.3732 80.2962 87.2103 85.4293 77.9934 90.4014C65.7779 96.9838 62.3836 98.8693 60.3175 100.198C58.0568 101.647 56.4066 102.285 54.0051 102.68C51.6036 102.285 49.9266 101.647 47.666 100.198C45.5999 98.8693 42.2257 96.9838 29.9901 90.4014C20.7731 85.4293 10.6304 80.2962 7.5648 79.0549C6.43113 78.5986 4.48577 77.1292 3.98937 76.6528L1.58787 74.0225C0.756059 73.1301 -0.109289 72.3249 0.0114569 72.0967C0.320031 71.4727 1.15184 71.1037 2.20501 70.5602C5.43833 68.9498 10.5298 67.3327 14.1321 66.7959C15.1651 66.6282 16.0573 66.4873 16.0975 66.4403C16.2451 66.2994 15.9097 65.8632 15.6011 65.8632C14.8163 65.8632 11.1671 66.5879 9.12109 67.1448C6.90741 67.7688 2.18489 68.5136 1.93669 68.2855C1.85619 68.2251 2.22514 67.3931 2.7685 66.4604C3.71434 64.7427 7.61176 56.9391 9.10096 53.725C9.34916 53.1681 9.59736 52.6917 9.78519 52.383C9.82544 52.3025 9.86569 52.2354 9.90594 52.1952C9.92606 52.1348 9.94619 52.0744 9.96631 52.0073C9.96631 51.9871 9.99314 51.9469 10.0133 51.9268C10.0334 51.967 10.0736 52.0274 10.1139 52.0744L10.3017 52.5307C10.3218 52.5709 10.342 52.6112 10.3621 52.6313C10.6505 53.2285 11.2744 53.5841 11.9184 53.564V53.7049C12.1867 63.6288 19.7803 71.8686 29.0174 72.1169C29.1381 72.1169 29.2857 72.137 29.4065 72.137C32.9886 72.137 36.5506 70.8353 39.576 68.4331C39.6565 68.5338 39.737 68.6344 39.8242 68.7418C40.1126 69.0907 40.3608 69.4262 40.5218 69.6745L40.9578 70.3119L40.4011 71.6807C38.0801 77.1493 38.0398 80.7123 40.3206 83.6915C41.1255 84.7717 43.0105 86.0735 44.5802 86.6304C46.0963 87.1471 48.5783 87.194 50.1077 86.7176C51.1475 86.4023 53.3209 85.2884 53.502 84.973C53.549 84.8724 54.0655 85.1207 54.6625 85.4964C55.2461 85.8856 56.3597 86.3821 57.1512 86.6304C58.4124 87.0263 58.8014 87.0665 60.3577 87.0061C62.4037 86.9189 63.4435 86.57 65.1607 85.4293C67.522 83.8391 68.7026 81.4772 68.6557 78.3302C68.6356 76.4045 68.3874 75.2839 67.3744 72.5933C67.0055 71.6203 66.6902 70.7078 66.6902 70.5602C66.6902 70.3119 67.086 69.6946 67.6427 68.9095C67.7031 68.8223 67.7903 68.7217 67.8507 68.6344C71.0169 71.3721 74.8272 72.8617 78.6374 72.8617H79.0331C88.1159 72.6134 95.9242 64.0381 96.0852 54.1209H96.2126C96.8566 54.0806 97.4335 53.7049 97.7019 53.0876L98.0574 52.2153L98.0775 52.1952C98.1781 52.3428 98.3056 52.5508 98.4263 52.799C98.5739 53.0674 98.7349 53.3761 98.9026 53.725C100.372 56.9391 104.289 64.7427 105.215 66.4604C105.758 67.3931 106.147 68.2251 106.047 68.2855C105.819 68.5136 101.096 67.7688 98.8624 67.1448C96.8365 66.5879 93.2141 65.8632 92.4024 65.8632H92.3823C92.0939 65.8632 91.7383 66.2994 91.906 66.4403C91.906 66.4403 91.9262 66.4604 91.9463 66.4604C92.1542 66.5275 92.9592 66.6483 93.8715 66.7959C97.4537 67.3327 102.545 68.9498 105.778 70.5602C106.852 71.1037 107.684 71.4727 107.992 72.0967Z" fill="#5E1211"></path>
<path d="M64.0611 44.5319L64.041 44.5721C63.9806 44.6325 63.8934 44.6996 63.833 44.7801L62.6323 46.0819C58.2586 42.0626 51.8389 41.8345 46.1169 45.6189C46.1169 45.5988 46.0967 45.5786 46.0766 45.5585L44.6679 44.0421C51.2083 39.6873 58.9696 39.8349 64.0611 44.5252V44.5319Z" fill="#FDCF81" stroke="#FDCF81" stroke-width="0.38" stroke-miterlimit="10"></path>
<path d="M41.998 66.7086C41.4547 67.2923 40.8778 67.8493 40.2741 68.3458C40.2338 68.3861 40.1936 68.4129 40.1533 68.4532C40.0527 68.5538 39.9454 68.6612 39.8246 68.7417C39.7575 68.7819 39.7173 68.8222 39.6569 68.8625C36.5913 71.2847 32.9689 72.6334 29.3264 72.6334C29.1989 72.6334 29.0581 72.5932 28.9306 72.5932C19.5124 72.3449 11.7511 63.8971 11.5633 53.7518V53.6645H12.6165C12.7439 63.1054 20.2168 71.3317 28.9507 71.5598C33.4653 71.6806 37.8726 69.6542 41.2065 65.9839C44.9362 61.9513 46.734 56.5028 46.1168 51.0342L46.6535 50.9739L46.9621 50.9537H46.9688L47.17 50.9336V51.0141C47.814 56.7309 45.9089 62.4679 41.998 66.7086Z" fill="#A6634B"></path>
<path d="M48.4512 51.0405C48.4512 51.0807 47.8542 51.0606 47.17 51.0203C47.1096 51.0203 47.0224 51.0002 46.962 51.0002C46.8614 51.0002 46.7541 51.0002 46.6535 50.9801C46.0766 50.96 45.6003 50.9197 45.6003 50.9197C45.6003 50.9197 42.3737 45.3303 39.4489 44.2299C37.0072 43.2972 31.104 41.8479 28.4946 41.7875C24.0001 41.6869 14.9576 42.3847 13.5086 46.7797C12.9921 48.3095 13.3409 53.2413 13.3409 53.2413L12.0798 53.6775H12.0395C11.9993 53.6976 11.959 53.6976 11.9121 53.7177C11.7846 53.7378 11.684 53.758 11.5633 53.758C10.8992 53.7781 10.282 53.4292 9.98685 52.8052C9.96673 52.785 9.94661 52.7448 9.90636 52.7045L9.7789 52.3959L9.71853 52.2483L9.57095 51.8725L8.55802 49.3898L6.61267 47.4641C6.42484 47.2963 6.32422 47.0481 6.32422 46.7998L6.34434 42.5524C6.34434 42.5524 7.69268 41.7271 10.2954 40.8347C10.5034 40.7542 10.7113 40.667 10.9394 40.5864C10.9595 40.5864 10.9998 40.5663 11.0199 40.5663C11.0803 40.5462 11.1474 40.526 11.2279 40.5059C16.1986 38.9559 24.8722 37.4596 36.8596 39.9087C39.677 40.5059 42.4273 42.0022 44.5605 43.9884C44.6008 44.0085 44.6209 44.0286 44.6611 44.0689L46.0095 45.5182L46.0699 45.5786C46.0699 45.5786 46.1101 45.6189 46.1101 45.639C47.4115 47.2963 48.2835 49.1617 48.4512 51.0405Z" fill="#A6634B" stroke="#A6634B" stroke-width="0.5" stroke-miterlimit="10"></path>
<path d="M96.401 54.1206V54.2011C96.3406 58.529 94.8246 62.6086 92.4029 65.8629C92.262 66.0709 92.1145 66.2789 91.9468 66.4601C88.7403 70.4592 84.105 73.1096 79.0739 73.2572H78.6781C74.8075 73.2572 70.9369 71.7207 67.7036 68.9495C67.6835 68.9293 67.6634 68.9293 67.6432 68.9092C67.5024 68.8019 67.3749 68.6811 67.2542 68.5536C67.2542 68.5536 67.2385 68.5402 67.2072 68.5133H67.2005C66.7712 68.151 66.362 67.7283 65.9863 67.3123C62.0352 63.0045 60.11 57.2273 60.754 51.4702V51.3896L61.0022 51.4299L61.2034 51.45H61.2705L61.787 51.4903C61.1632 56.979 62.9878 62.4878 66.7578 66.6077C70.1521 70.2713 74.5593 72.3648 79.0336 72.1971C87.7475 71.9689 95.2203 63.6688 95.3411 54.1206H96.401Z" fill="#A6634B"></path>
<path d="M101.882 47.2297C101.882 47.478 101.781 47.7262 101.593 47.894L99.6278 49.8197L99.0509 51.2691L98.6753 52.2018V52.2219L98.6552 52.242L98.4271 52.7989L98.2795 53.1277C97.9911 53.8121 97.3471 54.2013 96.6427 54.1812C96.5622 54.1812 96.475 54.1812 96.3945 54.161C96.3341 54.161 96.2671 54.1409 96.2067 54.1208H96.1866C96.1866 54.1208 96.1463 54.1007 96.1262 54.1007L94.8651 53.6444C94.8651 53.6444 95.2139 48.7394 94.6974 47.2029C93.2484 42.8347 84.1992 42.11 79.7114 42.2107C77.102 42.2711 71.2055 43.7204 68.7571 44.6531C65.839 45.7267 62.6057 51.3429 62.6057 51.3429C62.6057 51.3429 62.1093 51.3831 61.5056 51.4234C61.4251 51.4234 61.3379 51.4234 61.2574 51.4435H60.989C60.9086 51.4435 60.8213 51.4435 60.7409 51.4637C60.2042 51.4838 59.748 51.5039 59.748 51.4637C59.7883 50.9671 59.8755 50.4907 60.0164 50.0143C60.392 48.6052 61.1568 47.2364 62.1496 45.9951L62.1898 45.9548L62.3173 45.8072L63.3906 44.6464C63.4308 44.5659 63.4912 44.4988 63.5583 44.4585L63.5985 44.4183C63.6589 44.378 63.6991 44.3176 63.7662 44.2706C65.8591 42.3449 68.5692 40.8956 71.3397 40.3185C83.099 37.8962 91.672 39.3254 96.6964 40.8754C96.9043 40.9358 97.1123 41.0029 97.3202 41.0633C97.4209 41.0834 97.5081 41.1036 97.6087 41.1438C97.8569 41.2042 98.1051 41.3116 98.3332 41.3921C100.654 42.2442 101.855 42.9689 101.855 42.9689L101.875 47.2163L101.882 47.2297Z" fill="#A6634B" stroke="#A6634B" stroke-width="0.5" stroke-miterlimit="10"></path>
</svg></svg><style>@media (prefers-color-scheme: light) { :root { filter: none; } }
@media (prefers-color-scheme: dark) { :root { filter: none; } }
</style></svg>