<svg width="21" height="24" viewBox="0 0 21 24" fill="none" xmlns="http://www.w3.org/2000/svg">
<path d="M12.2423 22.2857L12.2423 5.14286L18.004 10.7829C18.1668 10.9435 18.3604 11.0711 18.5739 11.1581C18.7873 11.2451 19.0162 11.2899 19.2474 11.2899C19.4785 11.2899 19.7074 11.2451 19.9208 11.1581C20.1343 11.0711 20.3279 10.9435 20.4907 10.7829C20.8169 10.4617 21 10.0272 21 9.57429C21 9.1214 20.8169 8.68691 20.4907 8.36572L12.9603 1.01143C12.3065 0.367564 11.4185 0.00382722 10.491 -4.59361e-07C9.5697 0.00834222 8.68882 0.371733 8.03928 1.01143L0.508852 8.36571C0.346716 8.52555 0.21833 8.71508 0.131023 8.92349C0.0437164 9.1319 -0.000802994 9.3551 1.14441e-05 9.58035C0.000823975 9.80559 0.0469532 10.0285 0.135763 10.2363C0.224571 10.4441 0.354326 10.6327 0.517611 10.7914C0.680897 10.9501 0.874517 11.0758 1.08742 11.1613C1.30032 11.2467 1.52833 11.2903 1.75844 11.2895C1.98855 11.2887 2.21624 11.2436 2.42852 11.1566C2.6408 11.0697 2.83351 10.9427 2.99564 10.7829L8.73978 5.14286L8.73978 22.2857C8.73978 22.7404 8.92429 23.1764 9.25272 23.4979C9.58114 23.8194 10.0266 24 10.491 24C10.9555 24 11.4009 23.8194 11.7294 23.4979C12.0578 23.1764 12.2423 22.7404 12.2423 22.2857Z" fill="#FCFCFC"/>
</svg>
