<svg width="24" height="21" viewBox="0 0 24 21" fill="none" xmlns="http://www.w3.org/2000/svg">
<path d="M1.71429 12.2423L18.8571 12.2423L13.2171 18.004C13.0565 18.1668 12.9289 18.3604 12.8419 18.5739C12.7549 18.7873 12.7101 19.0162 12.7101 19.2473C12.7101 19.4785 12.7549 19.7074 12.8419 19.9208C12.9289 20.1343 13.0565 20.3279 13.2171 20.4907C13.5383 20.8169 13.9728 21 14.4257 21C14.8786 21 15.3131 20.8169 15.6343 20.4907L22.9886 12.9603C23.6324 12.3065 23.9962 11.4185 24 10.491C23.9917 9.5697 23.6283 8.68882 22.9886 8.03928L15.6343 0.508851C15.4744 0.346716 15.2849 0.21833 15.0765 0.131023C14.8681 0.0437164 14.6449 -0.000801809 14.4197 1.12673e-05C14.1944 0.000824343 13.9715 0.0469537 13.7637 0.135763C13.5559 0.224572 13.3673 0.354324 13.2086 0.517609C13.0499 0.680894 12.9242 0.874516 12.8387 1.08742C12.7533 1.30032 12.7097 1.52833 12.7105 1.75844C12.7113 1.98855 12.7564 2.21624 12.8434 2.42852C12.9303 2.6408 13.0573 2.83351 13.2171 2.99564L18.8571 8.73978L1.71429 8.73978C1.25963 8.73978 0.823593 8.92429 0.502102 9.25271C0.180611 9.58114 7.20908e-07 10.0266 6.80304e-07 10.491C6.39699e-07 10.9555 0.180611 11.4009 0.502102 11.7294C0.823593 12.0578 1.25963 12.2423 1.71429 12.2423Z" fill="#5E1010"/>
</svg>
