<svg width="44" height="27" viewBox="0 0 44 27" fill="none" xmlns="http://www.w3.org/2000/svg">
<path fill-rule="evenodd" clip-rule="evenodd" d="M12.7585 0C14.0553 0 15.223 0.110572 16.2876 0.337237C17.3546 0.555148 18.2559 0.926593 19.0209 1.43083C19.7769 1.93669 20.3599 2.61035 20.7911 3.45028C21.2036 4.28219 21.4098 5.32649 21.4098 6.56332C21.4098 7.90189 21.1021 9.01145 20.4809 9.90538C19.854 10.797 18.9437 11.5215 17.7225 12.095C19.3887 12.5659 20.6181 13.3906 21.4431 14.5614C22.2674 15.741 22.6636 17.1543 22.6636 18.819C22.6636 20.1655 22.3965 21.318 21.8751 22.2947C21.3425 23.2802 20.6206 24.0787 19.7363 24.6943C18.843 25.3162 17.8118 25.7712 16.6595 26.0655C15.5154 26.3582 14.3388 26.5117 13.1223 26.5117H0V0.00242443L12.7602 0.00323258L12.7586 0H12.7585ZM28.7116 2.1387H39.6852V4.75707L28.7116 4.75626V2.1379V2.1387ZM31.1501 21.8994C31.9589 22.6717 33.1184 23.0598 34.632 23.0598C35.7145 23.0598 36.6613 22.7894 37.4416 22.2509C38.222 21.7125 38.6962 21.1422 38.8773 20.552L43.6187 20.5528C42.8538 22.8658 41.7023 24.509 40.1221 25.5023C38.5654 26.4958 36.6605 27 34.4502 27C32.9016 27 31.5195 26.7542 30.2731 26.2746C29.0274 25.7871 27.988 25.1063 27.111 24.2115C26.2609 23.3199 25.591 22.2597 25.1175 21.0133C24.6531 19.7774 24.4143 18.4038 24.4143 16.9228C24.4143 15.484 24.6563 14.1454 25.1346 12.9079C25.6242 11.6607 26.295 10.5941 27.1882 9.69218C28.0806 8.79105 29.1289 8.07604 30.3672 7.55429C31.5967 7.03173 32.9544 6.77005 34.4582 6.77005C36.1156 6.77005 37.5675 7.08264 38.814 7.72129C40.0515 8.35125 41.0738 9.20229 41.8728 10.2633C42.6735 11.3251 43.2394 12.5444 43.5919 13.9068C43.9443 15.2692 44.0645 16.6913 43.9679 18.1834H29.8175C29.8175 19.6891 30.334 21.1302 31.1484 21.8938L31.1501 21.8994ZM37.3288 11.8182C36.6938 11.1286 35.6016 10.7492 34.2877 10.7492C33.427 10.7492 32.7157 10.8916 32.1489 11.1779C31.591 11.4627 31.1347 11.8158 30.7823 12.2382C30.4387 12.6589 30.1968 13.1138 30.0628 13.5918C29.9256 14.0547 29.8403 14.4834 29.8118 14.8548L38.5777 14.854C38.4486 13.5083 37.976 12.5149 37.3321 11.8166L37.3288 11.8182H37.3288ZM11.983 10.7054C13.0387 10.7054 13.9148 10.4597 14.6018 9.96417C15.2888 9.47663 15.616 8.66856 15.616 7.55664C15.616 6.94345 15.5039 6.42803 15.2806 6.03194C15.0501 5.63666 14.7471 5.32407 14.3614 5.10616C13.9822 4.88023 13.5543 4.72596 13.0484 4.64246C12.5587 4.55101 12.0423 4.50886 11.5194 4.50886H5.95215V10.7023H11.9847L11.983 10.7054ZM12.3094 21.9909C12.8958 21.9909 13.4536 21.9399 13.9741 21.8206C14.5068 21.7029 14.9802 21.5271 15.3741 21.2584C15.7695 20.9966 16.1057 20.653 16.3444 20.1981C16.5864 19.7511 16.6968 19.1801 16.6968 18.4825C16.6968 17.1201 16.3006 16.1426 15.5202 15.5524C14.7399 14.9702 13.7004 14.6855 12.4118 14.6855H5.9505V21.9805L12.3094 21.9797V21.9908V21.9909Z" fill="#5E1010"/>
</svg>
