<svg width="25" height="19" viewBox="0 0 25 19" fill="none" xmlns="http://www.w3.org/2000/svg">
<path d="M12.5 0C20.3127 0 23.8998 6.60908 24.8145 8.63574C24.9369 8.90694 25 9.20178 25 9.5C25 9.79822 24.9369 10.0931 24.8145 10.3643C23.8998 12.3909 20.3127 19 12.5 19C4.68743 18.9999 1.10112 12.3908 0.186523 10.3662C0.0638245 10.0947 0 9.79962 0 9.50098C1.12949e-05 9.20232 0.0637965 8.90728 0.186523 8.63574C1.10112 6.60909 4.68743 0.00010561 12.5 0ZM12.5 2.11133C5.93017 2.11144 2.86427 7.77535 2.08301 9.51172C2.86427 11.2249 5.93017 16.8886 12.5 16.8887C19.0543 16.8887 22.1211 11.2491 22.917 9.5C22.1211 7.75089 19.0543 2.11133 12.5 2.11133ZM12.4844 4.15039C13.8651 4.15213 15.1887 4.70143 16.165 5.67773C17.1413 6.65404 17.6906 7.9777 17.6924 9.3584C17.6924 10.3885 17.3868 11.3964 16.8145 12.2529C16.2422 13.1092 15.429 13.7767 14.4775 14.1709C13.5258 14.5651 12.4781 14.6678 11.4678 14.4668C10.4575 14.2658 9.52914 13.7704 8.80078 13.042C8.07242 12.3136 7.57695 11.3853 7.37598 10.375C7.17501 9.36466 7.27766 8.31696 7.67188 7.36523C8.06611 6.41364 8.73438 5.60057 9.59082 5.02832C10.4473 4.45611 11.4543 4.15039 12.4844 4.15039ZM13.6797 6.47168C13.1087 6.23523 12.4801 6.17338 11.874 6.29395C11.268 6.41457 10.7114 6.71245 10.2744 7.14941C9.83745 7.58642 9.53954 8.14292 9.41895 8.74902C9.29837 9.35518 9.3602 9.98369 9.59668 10.5547C9.83321 11.1257 10.2341 11.6136 10.748 11.957C11.262 12.3004 11.8663 12.4844 12.4844 12.4844C13.313 12.4843 14.1074 12.1543 14.6934 11.5684C15.2794 10.9823 15.6094 10.1872 15.6094 9.3584C15.6093 8.7405 15.4253 8.13682 15.082 7.62305C14.7386 7.10913 14.2507 6.70821 13.6797 6.47168Z" fill="#5E1010"/>
</svg>
