<svg width="36" height="35" viewBox="0 0 36 35" fill="none" xmlns="http://www.w3.org/2000/svg">
<path fill-rule="evenodd" clip-rule="evenodd" d="M17.9993 0C8.05916 0 0 8.03222 0 17.9424C0 25.87 5.15679 32.5954 12.3085 34.9683C13.2085 35.1342 13.5384 34.5795 13.5384 34.1055C13.5384 33.6779 13.5219 32.2649 13.5144 30.7652C8.50765 31.8508 7.45019 28.648 7.45019 28.648C6.63122 26.5742 5.45227 26.0225 5.45227 26.0225C3.81884 24.9085 5.57527 24.9325 5.57527 24.9325C7.38269 25.0596 8.33365 26.782 8.33365 26.782C9.93859 29.5242 12.544 28.7318 13.5714 28.2727C13.7334 27.1125 14.1999 26.3215 14.7144 25.873C10.7171 25.4199 6.51423 23.8813 6.51423 17.0064C6.51423 15.0477 7.2177 13.4463 8.36965 12.1904C8.18216 11.7373 7.56569 9.91318 8.54364 7.44161C8.54364 7.44161 10.0556 6.96016 13.4949 9.28071C14.9304 8.88299 16.4693 8.68412 17.9993 8.67665C19.5292 8.68412 21.0696 8.88299 22.5081 9.28071C25.9429 6.95866 27.4534 7.44161 27.4534 7.44161C28.4328 9.91318 27.8163 11.7373 27.6303 12.1904C28.7838 13.4463 29.4828 15.0477 29.4828 17.0064C29.4828 23.8978 25.2724 25.4154 21.2646 25.8595C21.9096 26.4157 22.4856 27.5087 22.4856 29.1818C22.4856 31.5831 22.4646 33.5149 22.4646 34.1055C22.4646 34.5825 22.7886 35.1432 23.7005 34.9668C30.8492 32.5909 36 25.8685 36 17.9439C35.9985 8.03371 27.9393 0 17.9993 0Z" fill="#5E1010"/>
</svg>
