<svg width="32" height="22" viewBox="0 0 32 22" fill="none" xmlns="http://www.w3.org/2000/svg">
<path d="M12.2317 13.2267C12.4904 13.4641 12.6315 13.7818 12.6534 14.109C12.6752 14.4403 12.5725 14.7811 12.3433 15.0557C12.5642 14.8797 12.8323 14.7887 13.104 14.7811C13.4293 14.7716 13.7606 14.882 14.0199 15.1076C14.0234 15.1106 14.0352 15.1218 14.0541 15.1395L13.8362 15.3734L14.0553 15.1389C14.0648 15.1478 14.073 15.1572 14.0813 15.1667C14.3282 15.4106 14.4545 15.7265 14.4652 16.049C14.4752 16.3413 14.3896 16.6377 14.2118 16.8887C14.3665 16.8084 14.5366 16.7635 14.7085 16.7553C15.0102 16.7399 15.3209 16.8362 15.5671 17.0417C15.5795 17.0517 15.5907 17.0618 15.6008 17.0706C15.8524 17.2956 15.9852 17.598 16.0024 17.9086C16.0195 18.2204 15.9197 18.5411 15.7041 18.7991L15.1248 19.4942C15.237 19.5621 15.3504 19.6318 15.4644 19.7021C16.6449 20.4296 17.9665 21.244 18.9551 20.0629L16.574 18.2688L17.1527 17.5017L19.7128 19.431L19.9425 19.3773L19.988 19.3696C20.3122 19.3259 20.5602 19.2031 20.7391 19.0082C20.885 18.8487 20.9949 18.6344 21.071 18.3692L17.8342 16.1871L18.3722 15.3899L21.7549 17.6706C22.1535 17.5678 22.4659 17.4202 22.6921 17.2277C22.861 17.0842 22.9844 16.9106 23.063 16.7062L18.9958 13.7966L19.5521 13.0147L23.7941 16.0495C24.0598 16.0448 24.2878 15.9657 24.4702 15.8381C24.6332 15.7242 24.7655 15.5694 24.8612 15.3917C24.9586 15.211 25.0171 15.0084 25.0313 14.8023C25.0507 14.5177 24.9864 14.2301 24.8234 13.9891C24.7649 13.9679 24.71 13.9348 24.6628 13.8911C23.2897 12.7537 21.9456 11.7315 20.5431 10.8462C19.1624 9.97575 17.7173 9.23166 16.1193 8.63284C15.8701 8.64111 15.6545 8.63934 15.4679 8.63757C14.852 8.63166 14.7085 8.63048 14.2502 9.52871C13.9089 10.1966 13.4618 10.6968 12.8908 10.9714C12.3492 11.2319 11.7191 11.2809 10.9898 11.0689C9.91026 10.7553 9.6575 10.4972 9.84766 9.84347C9.89963 9.66394 9.99766 9.48855 10.1264 9.25824C10.1601 9.198 10.1961 9.13245 10.2853 8.96532C10.8445 7.91238 11.3329 7.06434 11.8106 6.38522C11.3122 6.32793 10.9112 6.24703 10.5179 6.12715C10.0827 5.99486 9.67995 5.82242 9.18211 5.58562L5.75634 11.7527L7.10929 13.1523L7.62424 12.5582C7.85928 12.2878 8.18054 12.1307 8.51243 12.0994C8.84373 12.0681 9.18506 12.1608 9.46085 12.3893C9.46616 12.3935 9.46321 12.3917 9.48329 12.4094C9.74608 12.6374 9.89903 12.9521 9.93092 13.2769C9.95336 13.5031 9.91734 13.7346 9.81931 13.9448L10.3425 13.3318L10.3419 13.3312C10.3449 13.3277 10.3484 13.3242 10.3514 13.3206V13.32C10.3585 13.3118 10.3662 13.3041 10.3744 13.2964C10.6095 13.0407 10.926 12.9013 11.2502 12.8807C11.5827 12.8594 11.9246 12.9627 12.1957 13.1942L12.1963 13.1937C12.2004 13.1972 12.2039 13.2007 12.2075 13.2037C12.2163 13.2108 12.224 13.2185 12.2317 13.2267ZM14.5036 20.2395L13.9047 20.9576C13.8953 20.9688 13.8864 20.9795 13.8776 20.9889C13.6591 21.2334 13.3591 21.3627 13.052 21.3781C12.7508 21.3929 12.4402 21.2972 12.1933 21.0911C12.1815 21.081 12.1703 21.0716 12.1603 21.0627C11.9087 20.8371 11.7752 20.5354 11.7581 20.2242C11.7451 19.9879 11.7994 19.7464 11.9211 19.5309L11.8573 19.6035C11.8496 19.6129 11.8555 19.6047 11.8266 19.636C11.5862 19.8923 11.2626 20.024 10.9337 20.0328C10.6083 20.0423 10.2764 19.9318 10.0172 19.7062C10.0107 19.7003 10.0042 19.6944 9.99767 19.6879C9.99177 19.6826 9.98704 19.6779 9.98232 19.6738L9.98173 19.6744C9.97287 19.6661 9.96401 19.6566 9.95634 19.6472C9.70949 19.4033 9.58252 19.0874 9.57189 18.7649C9.5648 18.5423 9.61264 18.3167 9.7148 18.1112C9.49512 18.2996 9.22465 18.4035 8.94827 18.4212C8.61638 18.4425 8.27446 18.3385 8.0028 18.107L8.00221 18.1076C7.99867 18.1047 7.99453 18.1011 7.99099 18.0976C7.98272 18.0905 7.97445 18.0828 7.96678 18.0751C7.70871 17.8377 7.56698 17.5194 7.54572 17.1929C7.52328 16.8568 7.62839 16.5114 7.86461 16.235L8.04709 16.0206C7.84276 16.1795 7.60064 16.2728 7.3532 16.2964C7.0219 16.3277 6.68056 16.2344 6.40478 16.0065H6.40419C6.3971 16.0006 6.39002 15.9941 6.38293 15.9876L6.38175 15.9864C6.11954 15.7584 5.96659 15.4437 5.9347 15.1189C5.90222 14.7911 5.99258 14.4527 6.21639 14.1817C6.2223 14.174 6.2288 14.1669 6.23529 14.1604L6.23588 14.1598L6.47801 13.8805L5.02644 12.3781L4.43589 13.3927L4.43412 13.3962L4.42585 13.4098L4.4223 13.414C4.22683 13.7352 3.91857 13.946 3.57841 14.0281C3.24121 14.1096 2.87152 14.0659 2.55263 13.8799L2.54908 13.8764L2.53491 13.8681L2.53078 13.8657L0.662872 12.7331C0.336889 12.5352 0.124291 12.2252 0.0404325 11.8827C-0.0434255 11.5413 0.00145634 11.1669 0.191022 10.8415L6.11067 0.674645L6.11244 0.670511L6.12071 0.656928L6.12426 0.653385C6.31914 0.331536 6.62799 0.121299 6.96815 0.0392152C7.30535 -0.0422804 7.67445 0.00142008 7.99393 0.187443L7.99748 0.189214L8.01165 0.197482L8.01519 0.201025L9.88369 1.33429C10.2091 1.53153 10.4223 1.84157 10.5061 2.18409C10.5894 2.52601 10.5445 2.89983 10.3549 3.22581L9.51046 4.67679C10.0177 4.9201 10.4081 5.09194 10.7961 5.21006C11.2626 5.35238 11.764 5.43151 12.5134 5.48466L12.5116 5.50356C14.3016 3.56066 16.3466 3.71242 21.7378 4.11282L21.9958 4.1323L21.6451 3.52935C21.4555 3.20396 21.4106 2.82956 21.4939 2.48822C21.5777 2.1457 21.7909 1.83566 22.1163 1.63783L23.9848 0.505156L23.9884 0.501022L24.0025 0.492754L24.0061 0.490983C24.3256 0.30496 24.6946 0.26126 25.0318 0.342755C25.372 0.424842 25.6809 0.635667 25.8757 0.956925L25.8793 0.961059L25.8876 0.974641L25.8893 0.978185L31.809 11.1451C31.9985 11.471 32.0434 11.8449 31.9596 12.1862C31.8757 12.5293 31.6631 12.8388 31.3371 13.0366L29.4692 14.1699L29.4651 14.1716L29.4509 14.1799L29.4474 14.1834C29.1285 14.3695 28.7588 14.4132 28.4216 14.3317C28.0814 14.2496 27.7732 14.0393 27.5777 13.7175L27.5742 13.7139L27.5659 13.7004L27.5641 13.6962L26.9558 12.6515L25.7068 13.5964C25.9312 13.9909 26.0198 14.4344 25.9897 14.8667C25.9667 15.2086 25.8692 15.5458 25.7068 15.8464C25.5427 16.1505 25.3106 16.4198 25.0194 16.6236C24.7242 16.8297 24.3734 16.9661 23.9765 17.0015C23.8431 17.3753 23.6216 17.6937 23.3128 17.957C22.975 18.2446 22.5385 18.4584 22.0029 18.5978C21.886 19.0206 21.7017 19.3749 21.4454 19.6549C21.1183 20.0121 20.6889 20.2366 20.1486 20.3163L19.9236 20.3688C18.4313 22.656 16.5929 21.5234 14.9606 20.5177C14.8053 20.422 14.6518 20.3275 14.5036 20.2395ZM3.60734 12.9078L9.52404 2.74451C9.58546 2.6388 9.60022 2.51892 9.57364 2.40967C9.54825 2.30632 9.48447 2.21242 9.38762 2.15396L7.52326 1.02306L7.52267 1.02424L7.50849 1.01597H7.50908C7.40987 0.959869 7.29649 0.946286 7.19314 0.97168C7.09275 0.995892 7.00239 1.05554 6.94629 1.1453L6.94747 1.14589L6.93921 1.15947L1.02191 11.3222C0.960488 11.4279 0.945724 11.5484 0.972299 11.657C0.997693 11.761 1.06147 11.8543 1.15891 11.9133L3.02741 13.0466H3.02682L3.03331 13.0501L3.0339 13.049C3.13311 13.1074 3.24827 13.121 3.3528 13.0956C3.45319 13.0714 3.54355 13.0118 3.59965 12.922L3.59906 12.9214L3.60673 12.9078L3.60734 12.9078ZM23.2313 4.34608C23.2679 4.38387 23.2974 4.42758 23.3198 4.47541L23.7911 5.3069L28.3926 13.2114H28.3932L28.4009 13.225L28.4003 13.2255C28.4564 13.3153 28.5468 13.375 28.6472 13.3992C28.7517 13.4246 28.8669 13.411 28.9661 13.3531L28.9667 13.3543L28.9732 13.3501H28.9726L30.8411 12.2169C30.9385 12.1584 31.0023 12.0645 31.0277 11.9612C31.0542 11.8519 31.0395 11.7315 30.9781 11.6263L25.0608 1.46301L25.0525 1.44943L25.0537 1.44884C24.9976 1.35907 24.9072 1.29943 24.8068 1.27521C24.7035 1.25041 24.5901 1.2634 24.4909 1.31951H24.4915L24.4773 1.32836L24.4767 1.32718L22.6124 2.45749C22.5155 2.51655 22.4517 2.60985 22.4263 2.71379C22.3998 2.82245 22.4145 2.94292 22.4759 3.04863L23.2313 4.34608Z" fill="#252525"/>
</svg>
