<svg width="24" height="24" viewBox="0 0 24 24" fill="none" xmlns="http://www.w3.org/2000/svg">
<path d="M2.29913 0.0546336C1.50256 0.20692 0.647408 0.874639 0.284264 1.63607C0.0148339 2.21007 -0.0671665 2.83094 0.0558341 3.39908C0.190549 4.00237 0.407264 4.4358 0.776266 4.83409C2.56856 6.7611 5.72558 5.51938 5.72558 2.88365C5.72558 1.0445 4.10314 -0.29094 2.29913 0.0546336Z" fill="#5E1010"/>
<path d="M16.7957 7.71595C16.5204 7.77452 16.169 7.86823 16.005 7.92095C15.0268 8.26066 14.0428 9.01038 13.5157 9.83624L13.2814 10.1877L13.2697 9.08653L13.2521 7.97952L10.8682 7.96195L8.47852 7.95023V15.9746V23.9989H10.9678H13.4571V19.7056C13.4571 15.4298 13.4864 14.7328 13.668 14.0124C13.8847 13.169 14.4001 12.4954 15.0503 12.1967C15.718 11.8921 16.7898 11.857 17.4634 12.1088C18.1136 12.3548 18.5997 12.9581 18.8106 13.784C18.9863 14.4693 19.0214 15.4181 19.0214 19.6763V23.9403H21.5107H24V19.2663C24 14.4341 23.9649 13.3681 23.7599 12.226C23.2796 9.50239 21.8973 8.06152 19.3904 7.68666C18.5997 7.56952 17.4224 7.58123 16.7957 7.71595Z" fill="#5E1010"/>
<path d="M0.395508 15.9746V23.9989H2.88481H5.3741V15.9746V7.95024H2.88481H0.395508V15.9746Z" fill="#5E1010"/>
</svg>
