<svg width="36" height="36" viewBox="0 0 36 36" fill="none" xmlns="http://www.w3.org/2000/svg">
<path d="M3.4487 0.0820051C2.25384 0.310435 0.971114 1.31201 0.426396 2.45416C0.0222509 3.31517 -0.10075 4.24646 0.0837513 5.09868C0.285824 6.00362 0.610898 6.65377 1.1644 7.2512C3.85285 10.1417 8.58838 8.27913 8.58838 4.32553C8.58838 1.5668 6.15472 -0.436356 3.4487 0.0820051Z" fill="#5E1010"/>
<path d="M25.1935 11.5738C24.7805 11.6617 24.2534 11.8023 24.0074 11.8813C22.5401 12.3909 21.0641 13.5155 20.2734 14.7543L19.922 15.2814L19.9044 13.6297L19.8781 11.9692L16.3022 11.9428L12.7177 11.9253V23.9618V35.9983H16.4516H20.1856V29.5583C20.1856 23.1447 20.2295 22.0992 20.5018 21.0185C20.8269 19.7534 21.6001 18.743 22.5753 18.295C23.5769 17.8381 25.1847 17.7854 26.195 18.1632C27.1703 18.5322 27.8995 19.4371 28.2158 20.6759C28.4793 21.7038 28.532 23.1271 28.532 29.5144V35.9104H32.266H36V28.8994C36 21.6511 35.9472 20.0521 35.6397 18.3389C34.9193 14.2535 32.8459 12.0922 29.0856 11.5299C27.8995 11.3542 26.1335 11.3718 25.1935 11.5738Z" fill="#5E1010"/>
<path d="M0.593384 23.9618V35.9983H4.32734H8.06129V23.9618V11.9253H4.32734H0.593384V23.9618Z" fill="#5E1010"/>
</svg>
