<svg width="44" height="44" viewBox="0 0 44 44" fill="none" xmlns="http://www.w3.org/2000/svg">
<path d="M32.7017 28.4062C33.4193 28.4065 34.0014 28.9883 34.0015 29.7061C34.0015 30.4239 33.4194 31.0056 32.7017 31.0059H11.2983C10.5804 31.0059 9.99854 30.424 9.99854 29.7061C9.99863 28.9882 10.5804 28.4062 11.2983 28.4062H32.7017ZM32.7017 20.7002C33.4194 20.7005 34.0015 21.2822 34.0015 22C34.0015 22.7178 33.4194 23.2995 32.7017 23.2998H11.2983C10.5804 23.2998 9.99854 22.718 9.99854 22C9.99854 21.282 10.5804 20.7002 11.2983 20.7002H32.7017ZM32.7017 12.9941C33.4194 12.9944 34.0015 13.5761 34.0015 14.2939C34.0014 15.0117 33.4193 15.5935 32.7017 15.5938H11.2983C10.5804 15.5938 9.99863 15.0118 9.99854 14.2939C9.99854 13.576 10.5804 12.9941 11.2983 12.9941H32.7017Z" fill="#5E1010"/>
</svg>
