<svg width="44" height="44" viewBox="0 0 44 44" fill="none" xmlns="http://www.w3.org/2000/svg">
<path d="M31.3802 27.4812C31.4158 27.4812 31.4504 27.4849 31.4843 27.4915C31.7082 27.1013 31.9123 26.6917 32.0967 26.2638C32.1002 26.2552 32.1039 26.247 32.1082 26.2388C32.3851 25.5855 32.5941 24.907 32.7349 24.2038C32.8441 23.6583 32.9115 23.0989 32.9371 22.5259H29.6376C29.5777 24.2005 29.0777 25.8521 28.1456 27.4812H31.3802ZM30.805 28.5332H27.4819C26.4733 29.9943 25.1145 31.4375 23.4119 32.8627C23.6789 32.8295 23.943 32.7869 24.2039 32.7348C24.9161 32.5924 25.6032 32.3799 26.2643 32.0973L26.2639 32.0965C26.936 31.8074 27.562 31.4691 28.1407 31.081C28.7206 30.692 29.2581 30.25 29.7521 29.7539L29.754 29.7519C30.1363 29.3713 30.4865 28.9648 30.805 28.5332ZM20.5881 32.8625C18.8857 31.4375 17.5269 29.9943 16.5181 28.5332H13.1956C13.5141 28.9648 13.8641 29.3713 14.2462 29.7519L14.2481 29.7541C14.7423 30.2502 15.2798 30.692 15.8595 31.081C16.438 31.4691 17.064 31.8074 17.7363 32.0965C17.7447 32.1002 17.7531 32.1039 17.7613 32.108C18.4146 32.3851 19.0931 32.5939 19.7964 32.7348C20.0574 32.7869 20.3211 32.8295 20.5881 32.8625ZM12.5102 27.4812H15.8544C14.9225 25.8521 14.4223 24.2005 14.3628 22.5259H11.0635C11.0889 23.0989 11.1563 23.6581 11.2655 24.2036C11.4078 24.9157 11.6205 25.6029 11.903 26.264L11.9037 26.2638C12.0864 26.688 12.2883 27.0941 12.5102 27.4812ZM11.0635 21.4741H14.3833C14.5053 19.8335 15.0497 18.1817 16.0253 16.5188H12.5102C12.2883 16.9059 12.0864 17.312 11.9037 17.7364C11.9 17.7448 11.8961 17.7532 11.8922 17.7612C11.6151 18.4147 11.4063 19.0932 11.2655 19.7964C11.1563 20.3419 11.0889 20.9013 11.0635 21.4741ZM13.1956 15.467H16.6991C17.6968 14.0293 19.016 12.5832 20.6621 11.1287C20.3699 11.1629 20.0814 11.2084 19.7966 11.2654C19.0843 11.4078 18.3974 11.6205 17.7363 11.9029L17.7365 11.9035C17.0642 12.1928 16.4382 12.5309 15.8597 12.9192C15.28 13.3082 14.7425 13.7502 14.2483 14.2461L14.2462 14.2481C13.8641 14.6289 13.5141 15.0352 13.1956 15.467ZM23.3379 11.1285C24.984 12.583 26.3032 14.0291 27.3011 15.4668H30.8048C30.4863 15.0352 30.1361 14.6287 29.7538 14.2481L29.7519 14.2461C29.2579 13.75 28.7204 13.3082 28.1405 12.9192C27.5618 12.5309 26.9358 12.1928 26.2637 11.9035C26.2553 11.9 26.2469 11.8961 26.2389 11.892C25.5854 11.6151 24.9069 11.4061 24.2037 11.2654C23.919 11.2084 23.6301 11.1629 23.3379 11.1285ZM31.49 16.5188H27.9747C28.9505 18.1817 29.4948 19.8335 29.6169 21.4741H32.9369C32.9113 20.9011 32.8437 20.3419 32.7347 19.7964C32.5922 19.0843 32.3797 18.3971 32.0972 17.736L32.0965 17.7364C31.9138 17.312 31.7121 16.9059 31.49 16.5188ZM19.5912 10.234C20.3709 10.0779 21.174 10 22.0002 10C22.8264 10 23.6293 10.0779 24.409 10.234C25.1774 10.3879 25.9243 10.6188 26.6499 10.9268C26.6598 10.9303 26.6694 10.934 26.6788 10.9381C27.402 11.2494 28.0845 11.6188 28.7239 12.0483C29.3622 12.4764 29.9527 12.9617 30.4947 13.5057C31.0386 14.0477 31.524 14.6383 31.9519 15.2762C32.381 15.9159 32.7508 16.5981 33.0621 17.3217L33.0613 17.3219L33.0621 17.3237C33.376 18.0577 33.6107 18.8135 33.7662 19.5911C33.9223 20.3708 34 21.1739 34 22.0001C34 22.8263 33.9223 23.6296 33.7662 24.4093C33.6125 25.1773 33.3812 25.9245 33.0734 26.6499C33.0699 26.6597 33.0662 26.6693 33.0619 26.6787C32.7506 27.4023 32.381 28.0843 31.9517 28.724C31.5238 29.3621 31.0384 29.9525 30.4945 30.4945C29.9525 31.0385 29.3618 31.524 28.7237 31.9519C28.0845 32.3812 27.4018 32.751 26.6786 33.0621L26.6782 33.0613L26.6762 33.0621C25.9423 33.3758 25.1862 33.6105 24.4088 33.766C23.6291 33.9221 22.826 34 22 34C21.174 34 20.3707 33.9221 19.591 33.766C18.8228 33.6123 18.0757 33.3812 17.3499 33.0734C17.3404 33.0697 17.3308 33.0662 17.3212 33.0619C16.5976 32.7508 15.9155 32.3812 15.2759 31.9517C14.638 31.5238 14.0473 31.0383 13.5053 30.4943C12.9614 29.9523 12.476 29.3617 12.0481 28.7238C11.6188 28.0843 11.2492 27.4021 10.9379 26.6785L10.9387 26.6781L10.9379 26.6763C10.6242 25.9423 10.3895 25.1865 10.234 24.4089C10.0781 23.6294 10 22.8263 10 21.9999C10 21.1739 10.0781 20.3706 10.2342 19.5909C10.3879 18.8227 10.619 18.0757 10.9268 17.3501C10.9303 17.3405 10.934 17.3307 10.9381 17.3213C11.2494 16.5977 11.6188 15.9155 12.0483 15.2758C12.4764 14.6379 12.9618 14.0473 13.5055 13.5053C14.0475 12.9614 14.6382 12.476 15.2761 12.0479C15.9157 11.6186 16.598 11.249 17.3214 10.9377L17.3216 10.9385L17.3234 10.9377C18.0576 10.6244 18.8136 10.3897 19.5912 10.234ZM22.5262 11.8102V15.467H26.0079C25.093 14.2608 23.9338 13.042 22.5262 11.8102ZM22.5262 16.5188V21.4741H28.5657C28.4292 19.8468 27.8257 18.1952 26.7458 16.5188H22.5262ZM22.5262 22.5259V27.4812H26.9227C27.9634 25.8413 28.5222 24.1894 28.589 22.5259H22.5262ZM22.5262 28.5332V32.2348C24.0194 31.0076 25.2415 29.7736 26.1876 28.5332H22.5262ZM21.4742 32.2351V28.5332H17.8126C18.7585 29.7736 19.9806 31.0078 21.4742 32.2351ZM21.4742 27.4812V22.5259H15.4114C15.478 24.1896 16.0366 25.8413 17.0777 27.4812H21.4742ZM21.4742 21.4741V16.5188H17.2546C16.1747 18.1952 15.5712 19.847 15.4345 21.4741H21.4742ZM21.4742 15.467V11.8098C20.0666 13.0416 18.9072 14.2608 17.9923 15.467H21.4742Z" fill="#252525"/>
</svg>
