<svg width="48" height="47" viewBox="0 0 48 47" fill="none" xmlns="http://www.w3.org/2000/svg">
<g clip-path="url(#clip0_843_625)">
<path d="M39.5004 0H8.49961C3.80541 0 0 3.82164 0 8.53586V38.4641C0 43.1784 3.80541 47 8.49961 47H39.5004C44.1946 47 48 43.1784 48 38.4641V8.53586C48 3.82164 44.1946 0 39.5004 0Z" fill="#001E36"/>
<path d="M10.8086 32.96V12.2957C10.8086 12.146 10.8724 12.0697 11.0018 12.0697C11.3442 12.0697 11.6584 12.0697 12.1273 12.0537C12.5963 12.0377 13.1094 12.032 13.6571 12.0216L15.3961 11.9887C16.0076 11.978 16.6138 11.9727 17.2147 11.9727C18.8461 11.9727 20.2218 12.1774 21.3417 12.5868C22.3484 12.9295 23.2667 13.4929 24.0298 14.2361C24.6769 14.8807 25.1768 15.6588 25.4949 16.5166C25.7958 17.3518 25.9478 18.2338 25.9441 19.122C25.9441 20.8476 25.5471 22.2706 24.7529 23.3909C23.9532 24.516 22.8295 25.368 21.533 25.8324C20.1805 26.3391 18.677 26.5106 17.0243 26.5106C16.5553 26.5106 16.2196 26.5059 16.0264 26.4945C15.8331 26.4832 15.5433 26.4785 15.1569 26.4785V32.9299C15.1618 32.9634 15.16 32.9975 15.1517 33.0303C15.1434 33.0631 15.1287 33.0939 15.1085 33.121C15.0883 33.148 15.0629 33.1708 15.0338 33.188C15.0048 33.2051 14.9727 33.2163 14.9393 33.2209C14.9154 33.2247 14.891 33.2247 14.8671 33.2209H11.0337C10.8799 33.2181 10.8086 33.1324 10.8086 32.96ZM15.1569 15.9505V22.6901C15.4358 22.712 15.6934 22.7227 15.9297 22.7221H16.9924C17.7744 22.7194 18.5512 22.5948 19.2951 22.3528C19.9328 22.1634 20.5028 21.7939 20.9374 21.2884C21.3557 20.793 21.5649 20.1022 21.5649 19.2162C21.5811 18.5905 21.4184 17.9734 21.0959 17.4378C20.758 16.9198 20.2694 16.5188 19.6965 16.2896C18.9498 15.9983 18.1524 15.8609 17.3517 15.8855C16.8358 15.8855 16.3796 15.8908 15.9832 15.9015C15.5868 15.9122 15.3129 15.9285 15.1616 15.9505H15.1569Z" fill="#31A8FF"/>
<path d="M38.3946 21.4631C37.7895 21.1505 37.1449 20.922 36.4784 20.7839C35.7443 20.6145 34.9937 20.5276 34.2405 20.5249C33.8332 20.514 33.4264 20.5632 33.0334 20.6709C32.7828 20.7266 32.5601 20.8698 32.4049 21.075C32.3 21.2391 32.2444 21.4301 32.2445 21.6251C32.2502 21.8142 32.3182 21.996 32.4378 22.1422C32.6257 22.3632 32.8556 22.5445 33.114 22.6753C33.5729 22.9228 34.0458 23.143 34.5303 23.3347C35.611 23.6982 36.6438 24.1923 37.6058 24.806C38.2606 25.2218 38.8026 25.7939 39.1834 26.4714C39.5044 27.1139 39.6653 27.825 39.6524 28.5436C39.6714 29.4914 39.4018 30.4225 38.8795 31.2122C38.3201 32.0132 37.5433 32.636 36.6416 33.0065C35.6624 33.4386 34.4537 33.6546 33.0155 33.6546C32.1024 33.6631 31.1908 33.5763 30.2955 33.3956C29.5899 33.2656 28.9031 33.0483 28.2508 32.7485C28.1802 32.7121 28.1215 32.6563 28.0814 32.5875C28.0414 32.5188 28.0217 32.44 28.0248 32.3604V28.8686C28.0207 28.8344 28.0261 28.7996 28.0403 28.7683C28.0545 28.7369 28.077 28.71 28.1054 28.6906C28.1331 28.6747 28.1649 28.6678 28.1966 28.6706C28.2283 28.6735 28.2583 28.686 28.2827 28.7066C29.0538 29.1631 29.8911 29.4959 30.7645 29.6928C31.5337 29.8867 32.3229 29.9897 33.1159 29.9999C33.8662 29.9999 34.419 29.9029 34.7742 29.7088C34.9341 29.6353 35.0693 29.5168 35.1635 29.3677C35.2577 29.2185 35.3069 29.0452 35.305 28.8686C35.305 28.5879 35.144 28.3182 34.822 28.0595C34.5 27.8008 33.8447 27.4899 32.8561 27.127C31.845 26.7736 30.8865 26.2841 30.0066 25.6717C29.3774 25.2327 28.859 24.6521 28.4928 23.9762C28.1754 23.3391 28.0146 22.635 28.0238 21.9227C28.0211 21.0647 28.2555 20.2228 28.701 19.4906C29.2072 18.6863 29.9342 18.0461 30.7945 17.6473C31.7387 17.1732 32.9192 16.9361 34.3362 16.9361C35.1662 16.9291 35.9954 16.9883 36.8161 17.1132C37.4101 17.1899 37.9909 17.3484 38.5419 17.5842C38.5856 17.5968 38.6258 17.6194 38.6594 17.6503C38.6929 17.6812 38.7188 17.7195 38.7351 17.7622C38.7569 17.841 38.7676 17.9225 38.767 18.0043V21.2709C38.7696 21.3087 38.7623 21.3464 38.7458 21.3805C38.7294 21.4145 38.7043 21.4437 38.6732 21.465C38.6298 21.4863 38.582 21.4973 38.5337 21.4969C38.4853 21.4966 38.4377 21.485 38.3946 21.4631Z" fill="#31A8FF"/>
</g>
<defs>
<clipPath id="clip0_843_625">
<rect width="48" height="47" fill="white"/>
</clipPath>
</defs>
</svg>
