<svg width="48" height="47" viewBox="0 0 48 47" fill="none" xmlns="http://www.w3.org/2000/svg">
<g clip-path="url(#clip0_843_621)">
<path d="M39.4999 0H8.50007C3.80561 0 0 3.8219 0 8.53646V38.4635C0 43.1781 3.80561 47 8.50007 47H39.4999C44.1944 47 48 43.1781 48 38.4635V8.53646C48 3.8219 44.1944 0 39.4999 0Z" fill="#330000"/>
<path d="M23.2595 28.2053H15.8209L14.308 32.9264C14.288 33.0129 14.2383 33.0896 14.1675 33.1429C14.0968 33.1961 14.0096 33.2226 13.9213 33.2177H10.1541C9.93892 33.2177 9.86384 33.0989 9.92891 32.8614L16.369 14.2314C16.4315 14.0373 16.496 13.8173 16.5623 13.5717C16.6459 13.14 16.6889 12.7013 16.6909 12.2615C16.687 12.2355 16.6883 12.209 16.6948 12.1835C16.7012 12.158 16.7126 12.1341 16.7283 12.113C16.744 12.092 16.7637 12.0743 16.7863 12.061C16.8089 12.0476 16.8338 12.0389 16.8598 12.0353C16.8785 12.0325 16.8974 12.0325 16.9161 12.0353H22.0357C22.1858 12.0353 22.2712 12.0891 22.2938 12.1965L29.6029 32.8934C29.6676 33.1083 29.6029 33.2167 29.4095 33.2167H25.2238C25.1519 33.2247 25.0796 33.2062 25.0204 33.1646C24.9611 33.1229 24.919 33.0611 24.9019 32.9905L23.2595 28.2053ZM16.9809 24.1279H22.0676C21.9393 23.6963 21.7891 23.2112 21.6171 22.6727C21.445 22.1342 21.2626 21.5574 21.0699 20.9422L20.4899 19.0996C20.2966 18.485 20.1195 17.8919 19.9587 17.3201C19.7979 16.7483 19.6519 16.2267 19.5205 15.7555H19.4886C19.3072 16.6286 19.0813 17.4919 18.8119 18.3418C18.5116 19.3126 18.2056 20.3044 17.894 21.3173C17.5824 22.3302 17.2781 23.2671 16.9809 24.1279Z" fill="#FF9A00"/>
<path d="M33.9499 15.4642C33.6215 15.4773 33.294 15.4207 32.9888 15.2981C32.6836 15.1755 32.4077 14.9896 32.1789 14.7526C31.9508 14.5052 31.7736 14.215 31.6577 13.8986C31.5417 13.5822 31.4892 13.2458 31.5032 12.909C31.492 12.5761 31.5508 12.2446 31.6756 11.9361C31.8004 11.6276 31.9886 11.3489 32.2277 11.1182C32.4646 10.8899 32.7441 10.7108 33.0501 10.5915C33.3561 10.4721 33.6827 10.4147 34.0109 10.4226C34.7836 10.4226 35.3899 10.6545 35.8297 11.1182C36.2759 11.6044 36.5121 12.2483 36.4867 12.909C36.5002 13.2472 36.4459 13.5847 36.3269 13.9014C36.2079 14.2182 36.0267 14.5076 35.794 14.7526C35.552 14.9922 35.2632 15.1791 34.9459 15.3016C34.6286 15.424 34.2895 15.4794 33.9499 15.4642ZM31.7284 32.8934V17.4359C31.7284 17.2418 31.8138 17.1447 31.9856 17.1447H35.9451C36.116 17.1447 36.2023 17.2389 36.2023 17.4359V32.8934C36.2023 33.1082 36.1169 33.2166 35.9451 33.2166H32.0184C31.8251 33.2176 31.7284 33.1092 31.7284 32.8934Z" fill="#FF9A00"/>
</g>
<defs>
<clipPath id="clip0_843_621">
<rect width="48" height="47" fill="white"/>
</clipPath>
</defs>
</svg>
