<svg width="33" height="48" viewBox="0 0 33 48" fill="none" xmlns="http://www.w3.org/2000/svg">
<g clip-path="url(#clip0_843_629)">
<path d="M16.4551 23.1312C16.4551 19.1928 19.7064 16.0009 23.7151 16.0009H24.7652C24.7938 16.0019 24.8253 16 24.8548 16C29.3527 16 32.9999 19.5834 32.9999 24.0006C32.9999 28.4178 29.3527 32.0003 24.8548 32.0003C24.8253 32.0003 24.7938 31.9994 24.7642 31.9994L23.7151 32.0003C19.7064 32.0003 16.4551 28.8066 16.4551 24.8691V23.1312Z" fill="#00B6FF"/>
<path d="M0 40.0016C0 35.5834 3.64717 32 8.14509 32L16.4552 32.0009V39.9191C16.4552 44.3832 12.7298 48.0003 8.18514 48.0003C3.68818 48.0003 0 44.4188 0 40.0016Z" fill="#24CB71"/>
<path d="M16.4551 0.000936841V16.0003H24.7652C24.7938 15.9994 24.8253 16.0012 24.8548 16.0012C29.3527 16.0012 32.9999 12.4178 32.9999 8.00062C32.9999 3.58248 29.3527 0 24.8548 0C24.8253 0 24.7938 0.000936841 24.7642 0.000936841H16.4551Z" fill="#FF7237"/>
<path d="M0 7.99875C0 12.4169 3.64717 15.9994 8.14509 15.9994H16.4552V0H8.14413C3.64717 0 0 3.58154 0 7.99875Z" fill="#FF3737"/>
<path d="M0 24.0007C0 28.4188 3.64717 32.0013 8.14509 32.0013H16.4552V16.002H8.14413C3.64717 16.002 0 19.5835 0 24.0007Z" fill="#874FFF"/>
</g>
<defs>
<clipPath id="clip0_843_629">
<rect width="33" height="48" fill="white"/>
</clipPath>
</defs>
</svg>
