<svg width="48" height="48" viewBox="0 0 48 48" fill="none" xmlns="http://www.w3.org/2000/svg">
<g clip-path="url(#clip0_843_636)">
<path d="M24 48C37.2548 48 48 37.2548 48 24C48 10.7452 37.2548 0 24 0C10.7452 0 0 10.7452 0 24C0 37.2548 10.7452 48 24 48Z" fill="#7B2CBF"/>
<path d="M19.623 13.4532L10.3008 22.7754C9.58238 23.4938 9.58238 24.6585 10.3008 25.3769L19.623 34.6992C20.3414 35.4176 21.5061 35.4176 22.2245 34.6992L31.5468 25.3769C32.2652 24.6585 32.2652 23.4938 31.5468 22.7754L22.2245 13.4532C21.5061 12.7348 20.3414 12.7348 19.623 13.4532Z" stroke="#E0AAFF" stroke-width="2"/>
<path d="M26.623 13.3008L17.3008 22.6231C16.5824 23.3415 16.5824 24.5062 17.3008 25.2246L26.623 34.5468C27.3414 35.2652 28.5061 35.2652 29.2245 34.5468L38.5468 25.2246C39.2652 24.5062 39.2652 23.3415 38.5468 22.6231L29.2245 13.3008C28.5061 12.5824 27.3414 12.5824 26.623 13.3008Z" fill="white"/>
</g>
<defs>
<clipPath id="clip0_843_636">
<rect width="48" height="48" fill="white"/>
</clipPath>
</defs>
</svg>
